<svg width="111" height="20" viewBox="0 0 111 20" fill="none" xmlns="http://www.w3.org/2000/svg">
<path d="M71.6386 19.9953H68.7078L64.4895 13.629C64.4199 13.629 64.3476 13.629 64.2755 13.629H56.7131V11.1795H64.2755C65.4279 11.1782 66.5327 10.718 67.3473 9.89986C68.1619 9.08151 68.62 7.97229 68.6205 6.81548C68.616 5.66269 68.1575 4.55838 67.3446 3.7436C66.5321 2.92883 65.4314 2.46973 64.2829 2.46644H56.7156V0.0169678H64.2829C66.082 0.0189561 67.8066 0.737171 69.0788 2.01406C70.3509 3.29096 71.0663 5.02217 71.0683 6.82799C71.067 8.1452 70.6859 9.4336 69.9711 10.5381C69.2561 11.6424 68.2378 12.5155 67.0394 13.0517L71.6386 19.9953Z" fill="white"/>
<path d="M49.9907 11.1758H52.4309V17.0796C52.3963 17.1165 52.3598 17.1516 52.3213 17.1846C49.7018 19.6491 47.3587 19.9965 45.2098 19.9965C42.4059 19.9965 39.6145 18.4969 37.7396 15.9798C35.8047 13.3829 35.2794 9.68369 36.4 6.55686C37.4831 3.53499 40.5135 0.0107422 45.4936 0.0107422C49.7266 0.0107422 51.6392 1.87533 52.6601 2.88014L52.9488 3.15757L51.2954 4.96709C51.1909 4.86968 51.0788 4.75976 50.9568 4.63979C50.0256 3.71745 48.7457 2.46773 45.4936 2.46773C41.7809 2.46773 39.5174 5.11968 38.6956 7.3942C38.2772 8.57447 38.1491 9.83896 38.3226 11.0798C38.496 12.3206 38.9658 13.5011 39.6918 14.5203C41.1061 16.4197 43.1778 17.5546 45.2047 17.5546C46.6987 17.5546 48.1928 17.4221 49.9858 15.9798L49.9907 11.1758Z" fill="white"/>
<path d="M89.5076 0L83.1828 16.419L76.8579 0H74.1462L81.8805 19.9958H83.1828H84.485L92.2193 0H89.5076Z" fill="white"/>
<path d="M102.302 2.46666H96.0596V0.00219727H111V2.46666H104.758V19.998H102.3L102.302 2.46666Z" fill="white"/>
<path d="M19.8457 8.77728C19.8959 9.18366 19.9207 9.59272 19.9205 10.002C19.9205 12.6536 18.8711 15.1967 17.0031 17.0716C15.1353 18.9466 12.6018 20 9.96036 20C7.3196 19.9966 4.78805 18.9422 2.92095 17.068C1.05384 15.1938 0.0033569 12.6525 0 10.002C0 7.35037 1.04936 4.80753 2.91736 2.93246C4.78514 1.05748 7.3187 0.00415039 9.96036 0.00415039V2.45363C7.96659 2.45626 6.05539 3.2524 4.64572 4.66745C3.23605 6.08252 2.44293 8.00093 2.44024 10.002C2.44293 12.0031 3.23605 13.9217 4.64572 15.3366C6.05539 16.7516 7.96659 17.5479 9.96036 17.5505C11.7424 17.5483 13.4658 16.9116 14.8243 15.7537C16.1825 14.5957 17.0875 12.9917 17.3782 11.2267H9.97759C9.92746 10.8206 9.90262 10.4115 9.90307 10.002C9.90262 9.59272 9.92768 9.18366 9.97759 8.77728C10.2732 6.37787 11.4249 4.16704 13.2195 2.55445C15.0143 0.941886 17.3303 0.0367459 19.7388 0.0066304V2.45613C17.9784 2.48687 16.2845 3.13625 14.9518 4.29123C13.6191 5.44625 12.7323 7.03357 12.4454 8.77728H19.8457Z" fill="white"/>
<path d="M29.8235 9.87761H27.3808C27.3436 7.92211 26.5525 6.0571 25.1737 4.67487C23.7949 3.29282 21.9359 2.50123 19.9875 2.46665V0.0146484C22.5833 0.050796 25.0627 1.10122 26.8992 2.94282C28.7358 4.78434 29.7848 7.27222 29.8235 9.87761Z" fill="#006FF2"/>
<path d="M27.3801 10.1257H29.8228C29.7858 12.7443 28.7284 15.2442 26.8774 17.0896C25.0262 18.9352 22.5287 19.9794 19.9199 19.9986V17.5467C21.8817 17.5302 23.7595 16.7449 25.1531 15.3589C26.5467 13.9726 27.3458 12.0949 27.3801 10.1257Z" fill="#15B8F3"/>
</svg>
