<svg width="128" height="22" viewBox="0 0 128 22" fill="none" xmlns="http://www.w3.org/2000/svg">
<g clip-path="url(#clip0_15_1233)">
<path d="M28.4918 1.28906H31.5536V9.45312L39.7184 1.28906H43.8008L36.4865 8.42188L44.141 20.4531H40.0586L34.1051 10.7422L31.4685 13.3203V20.5391H28.4067L28.4918 1.28906Z" fill="white"/>
<path d="M45.842 1.28906H48.9038V4.64063C49.159 4.03906 49.7543 3.17969 50.6899 2.32031C51.6254 1.375 52.7311 0.945312 54.0068 0.945312C54.0919 0.945312 54.1769 0.945312 54.347 0.945312C54.5171 0.945312 54.7723 0.945313 55.1125 1.03125V4.46875C54.9424 4.46875 54.7723 4.38281 54.6022 4.38281C54.4321 4.38281 54.262 4.38281 54.0919 4.38281C52.4759 4.38281 51.2852 4.89844 50.4347 5.92969C49.5842 6.96094 49.159 8.16406 49.159 9.53906V20.5391H45.9271L45.842 1.28906Z" fill="white"/>
<path d="M66.9344 8.85156C67.6999 8.76563 68.1251 8.42187 68.3803 7.90625C68.5504 7.64844 68.5504 7.21875 68.5504 6.70313C68.5504 5.58594 68.1251 4.8125 67.3597 4.29688C66.5942 3.78125 65.4886 3.52344 64.0427 3.52344C62.3417 3.52344 61.2361 3.95312 60.4706 4.89844C60.0454 5.41406 59.7902 6.1875 59.7052 7.13281H56.7284C56.8135 4.72656 57.5789 3.09375 59.0248 2.23437C60.5557 1.28906 62.1716 0.859375 64.1278 0.859375C66.3391 0.859375 68.1251 1.28906 69.571 2.14844C70.9318 3.00781 71.6121 4.38281 71.6121 6.1875V17.1875C71.6121 17.5313 71.6972 17.7891 71.7823 17.9609C71.9524 18.1328 72.2075 18.3047 72.6328 18.3047C72.8029 18.3047 72.9729 18.3047 73.143 18.3047C73.3131 18.3047 73.4832 18.2188 73.7384 18.2188V20.625C73.2281 20.7969 72.8879 20.8828 72.6328 20.8828C72.3776 20.8828 72.0374 20.9687 71.6121 20.9687C70.5065 20.9687 69.7411 20.5391 69.2308 19.7656C68.9756 19.3359 68.8055 18.7344 68.7205 17.9609C68.0401 18.8203 67.1045 19.5938 65.9138 20.1953C64.7231 20.7969 63.3623 21.1406 61.9165 21.1406C60.1304 21.1406 58.6846 20.625 57.5789 19.5078C56.4733 18.3906 55.8779 17.1016 55.8779 15.4688C55.8779 13.6641 56.3882 12.2891 57.4939 11.3437C58.5995 10.3984 60.0454 9.79688 61.8314 9.53906L66.9344 8.85156ZM60.2155 17.5312C60.8959 18.0469 61.6613 18.3047 62.5969 18.3047C63.7025 18.3047 64.8082 18.0469 65.8288 17.5312C67.6148 16.6719 68.4653 15.2109 68.4653 13.2344V10.6562C68.0401 10.9141 67.6148 11.0859 66.9344 11.2578C66.254 11.4297 65.7437 11.5156 65.1484 11.6016L63.2773 12.0312C62.0866 12.2031 61.2361 12.4609 60.6407 12.8047C59.6201 13.4062 59.1949 14.2656 59.1949 15.4688C59.1949 16.3281 59.5351 17.0156 60.2155 17.5312Z" fill="white"/>
<path d="M75.8646 1.28906H78.9264V9.45312L87.0912 1.28906H91.1736L83.8593 8.42188L91.5138 20.4531H87.4314L81.4779 10.7422L78.8413 13.3203V20.5391H75.7795L75.8646 1.28906Z" fill="white"/>
<path d="M104.526 1.8906C105.802 2.49216 106.738 3.35154 107.418 4.38279C108.013 5.3281 108.439 6.44529 108.694 7.73435C108.864 8.59373 108.949 10.0547 108.949 11.9453H95.1708C95.2558 13.9219 95.6811 15.4687 96.5316 16.6719C97.3821 17.875 98.6578 18.4765 100.444 18.4765C102.06 18.4765 103.421 17.9609 104.356 16.8437C104.866 16.1562 105.292 15.4687 105.547 14.6094H108.694C108.609 15.2969 108.354 16.0703 107.843 16.9297C107.418 17.789 106.823 18.4765 106.312 19.0781C105.377 20.0234 104.186 20.7109 102.74 20.9687C101.975 21.1406 101.124 21.2265 100.189 21.2265C97.8073 21.2265 95.8512 20.3672 94.2352 18.6484C92.6193 16.9297 91.7688 14.5234 91.7688 11.4297C91.7688 8.33591 92.6193 5.84373 94.2352 3.9531C95.8512 2.06248 98.0625 1.03123 100.699 1.03123C101.975 0.859351 103.251 1.2031 104.526 1.8906ZM105.717 9.36716C105.547 7.99216 105.292 6.87498 104.781 6.0156C103.931 4.46873 102.485 3.69529 100.444 3.69529C98.998 3.69529 97.8073 4.21091 96.7867 5.3281C95.7661 6.35935 95.2558 7.73435 95.2558 9.36716H105.717Z" fill="white"/>
<path d="M111.756 1.28906H114.817V4.03906C115.753 2.92187 116.689 2.14844 117.709 1.63281C118.73 1.11719 119.835 0.859375 121.026 0.859375C123.748 0.859375 125.534 1.80469 126.469 3.69531C126.98 4.72656 127.235 6.1875 127.235 8.16406V20.4531H124.003V8.42188C124.003 7.21875 123.833 6.27344 123.492 5.58594C122.897 4.38281 121.877 3.78125 120.431 3.78125C119.665 3.78125 119.07 3.86719 118.56 4.03906C117.709 4.29687 116.944 4.8125 116.263 5.58594C115.753 6.1875 115.413 6.875 115.243 7.5625C115.073 8.25 114.988 9.19531 114.988 10.4844V20.5391H111.841L111.756 1.28906Z" fill="white"/>
<path d="M12.9277 1.28906C6.29377 1.28906 0.850586 6.70312 0.850586 13.4922V18.7344C0.850586 19.6797 1.61603 20.4531 2.55158 20.4531C3.48713 20.4531 4.25258 19.6797 4.25258 18.7344V13.4922C4.25258 12.5469 5.01803 11.7734 5.95358 11.7734C6.88912 11.7734 7.65457 12.5469 7.65457 13.4922V18.7344C7.65457 19.6797 8.42002 20.4531 9.35557 20.4531C10.2911 20.4531 11.0566 19.6797 11.0566 18.7344V13.4922C11.0566 12.5469 11.822 11.7734 12.7576 11.7734C13.6931 11.7734 14.4586 12.5469 14.4586 13.4922V18.7344C14.4586 19.6797 15.224 20.4531 16.1596 20.4531C17.0951 20.4531 17.8606 19.6797 17.8606 18.7344V13.4922C17.8606 12.5469 18.626 11.7734 19.5615 11.7734C20.4971 11.7734 21.2625 12.5469 21.2625 13.4922V18.7344C21.2625 19.6797 22.028 20.4531 22.9635 20.4531C23.8991 20.4531 24.6645 19.6797 24.6645 18.7344V13.4922C25.0898 6.70312 19.6466 1.28906 12.9277 1.28906Z" fill="white"/>
</g>
<defs>
<clipPath id="clip0_15_1233">
<rect width="128" height="22" fill="white"/>
</clipPath>
</defs>
</svg>
