<svg width="306" height="78" viewBox="0 0 306 78" fill="none" xmlns="http://www.w3.org/2000/svg">
<g clip-path="url(#clip0_9_520)">
<path d="M62.9476 0L53.6695 16.4875H31.1969L18.5426 38.9931L29.7789 58.9749L20.5008 75.4763L0 38.9931L21.9189 0H62.9476Z" fill="white"/>
<path d="M87.7026 38.9931L65.7837 78H24.4714L33.7359 61.5125H56.5056L69.16 38.9931L57.7751 18.7477L67.0532 2.2464L87.7026 38.9931Z" fill="white"/>
<path d="M127.205 14.768H114.888L101.923 61.36H109.176L112.16 50.3776H129.92L132.904 61.36H140.103L127.205 14.768ZM113.916 43.7216L120.52 19.2331L121.047 17.3056L128.178 43.7216H113.916Z" fill="white"/>
<path d="M158.078 28.4128C156.39 28.4128 155.35 28.5237 153.648 29.744C151.933 30.9781 150.718 34.4448 150.204 35.8315L150.299 32.4064V28.5515H143.749V61.36H150.434V42.0576C150.434 39.5339 151.123 37.6619 152.5 36.4277C153.891 35.2075 155.661 34.6112 157.821 34.6112H161.9V28.4128H158.078Z" fill="white"/>
<path d="M198.729 35.4016C197.392 32.8779 195.595 30.9365 193.353 29.6053C191.112 28.2741 188.64 27.6224 185.966 27.6224C183.886 27.6224 182.144 27.8859 180.713 28.4128C179.281 28.9536 178.147 29.6192 177.282 30.4512C176.405 31.2693 175.675 32.0875 175.203 33.0027C174.487 34.4171 174.163 36.6357 174.163 36.6357V14.768H167.491V61.36H174.041V56.7008L174.095 53.0816C174.824 57.3387 177.134 59.4048 178.795 60.5696C180.456 61.7205 182.846 62.2891 185.966 62.2891C188.64 62.2891 191.098 61.6235 193.326 60.2923C195.541 58.9611 197.338 57.0475 198.702 54.5376C200.066 52.0277 200.741 49.0048 200.741 45.4549V44.4565C200.741 40.9483 200.066 37.9253 198.729 35.4016ZM194.002 45.2608C194.002 48.8107 193.056 51.5285 191.179 53.4421C189.302 55.3557 186.912 56.2987 184.021 56.2987C181.131 56.2987 178.795 55.3557 176.918 53.4421C175.04 51.5285 174.095 48.8107 174.095 45.2608V44.6507C174.095 41.1563 175.04 38.4384 176.918 36.5387C178.795 34.6251 181.172 33.6683 184.021 33.6683C186.871 33.6683 189.356 34.6251 191.22 36.5387C193.07 38.4384 194.002 41.1563 194.002 44.6507V45.2608Z" fill="white"/>
<path d="M207.682 28.5515V61.36H214.367V28.5515H207.682ZM214.367 16.0715C213.503 15.1979 212.396 14.768 211.059 14.768C209.722 14.768 208.668 15.1979 207.79 16.0715C206.899 16.9312 206.453 18.0544 206.453 19.4272C206.453 20.8 206.899 21.9232 207.79 22.7968C208.668 23.6565 209.762 24.0864 211.059 24.0864C212.355 24.0864 213.503 23.6565 214.367 22.7968C215.232 21.9232 215.664 20.8 215.664 19.4272C215.664 18.0544 215.232 16.9312 214.367 16.0715Z" fill="white"/>
<path d="M246.213 28.5515V45.1221C246.213 48.672 245.375 51.3899 243.714 53.2757C242.04 55.1616 239.852 56.1045 237.137 56.1045C234.666 56.1045 232.748 55.4251 231.357 54.08C229.979 52.7211 229.291 50.6272 229.291 47.7845V28.5515H222.606V48.256C222.606 51.0848 223.146 53.5253 224.226 55.5776C225.307 57.616 226.806 59.1829 228.71 60.2923C230.601 61.4016 232.761 61.9563 235.192 61.9563C238.204 61.9563 240.5 61.3739 242.053 60.1952C243.62 59.0165 244.781 57.8101 245.294 56.4373C246.091 54.3019 246.334 52.4992 246.334 52.4992V61.36H252.884V28.5515H246.213Z" fill="white"/>
<path d="M304.568 33.1691C303.623 31.4635 302.34 30.1739 300.747 29.3141C299.139 28.4544 297.303 28.0107 295.236 28.0107C292.643 28.0107 290.645 28.5237 289.24 29.5499C287.836 30.5621 286.769 31.8379 286.026 33.3355H284.986C284.257 31.7824 283.163 30.5067 281.718 29.5083C280.273 28.5099 278.355 28.0107 275.978 28.0107C273.601 28.0107 271.872 28.4544 270.535 29.3419C269.198 30.2293 268.226 31.2555 267.618 32.4064H266.578V28.5515H260.028V61.36H266.714V41.7941C266.714 39.2149 267.335 37.2459 268.591 35.8731C269.847 34.5003 271.508 33.8069 273.588 33.8069C275.532 33.8069 277.031 34.3477 278.085 35.4432C279.152 36.5248 279.678 38.064 279.678 40.0608V61.36H286.35V41.7941C286.35 39.2149 286.985 37.2459 288.227 35.8731C289.483 34.5003 291.144 33.8069 293.224 33.8069C295.169 33.8069 296.668 34.3477 297.735 35.4432C298.802 36.5387 299.315 38.064 299.315 40.0608V61.36H306V39.5339C306 36.9963 305.514 34.8885 304.568 33.1691Z" fill="white"/>
<path d="M214.367 28.5376H203.55V33.6683H214.367V28.5376Z" fill="white"/>
</g>
<defs>
<clipPath id="clip0_9_520">
<rect width="306" height="78" fill="white"/>
</clipPath>
</defs>
</svg>
